<?xml version="1.0" encoding="UTF-8"?>
<!DOCTYPE svg PUBLIC "-//W3C//DTD SVG 1.1//EN" "http://www.w3.org/Graphics/SVG/1.1/DTD/svg11.dtd">
<!-- Creator: CorelDRAW 2019 (64 Bit) -->
<svg xmlns="http://www.w3.org/2000/svg" xml:space="preserve" width="170mm" height="170mm" version="1.1" style="shape-rendering:geometricPrecision; text-rendering:geometricPrecision; image-rendering:optimizeQuality; fill-rule:evenodd; clip-rule:evenodd"
viewBox="0 0 16998.94 16998.94"
 xmlns:xlink="http://www.w3.org/1999/xlink">
 <defs>
  <style type="text/css">
   <![CDATA[
    .fil0 {fill:none}
    .fil3 {fill:#1E7D8C}
    .fil1 {fill:black;fill-rule:nonzero}
    .fil2 {fill:#1E7D8C;fill-rule:nonzero}
   ]]>
  </style>
 </defs>
 <g id="Camada_x0020_1">
  <metadata id="CorelCorpID_0Corel-Layer"/>
  <rect class="fil0" width="16998.94" height="16998.94"/>
  <rect class="fil0" width="16998.94" height="16998.94"/>
  <g id="_2459958712064">
   <path class="fil1" d="M2508.85 11272.04l-932.27 0 0 -461.57 888.54 0 0 -255.35 -888.54 0 0 -466.47 925.38 0 0 -267.61 -1183.19 0c0,573.68 0,1149.02 0,1721.08l1190.08 0 0 -270.07zm6270.44 -1207.95c-135.82,-230.79 -368.32,-289.7 -600.81,-289.7 -290.03,0 -623.82,137.48 -621.52,493.49 0,368.29 303.87,454.2 623.83,500.87 225.6,31.91 412.04,95.74 412.04,282.34 0,216.06 -214.09,284.79 -407.43,284.79 -186.46,0 -386.73,-73.65 -501.83,-282.35l-193.37 137.49c147.33,289.72 384.44,390.39 692.89,390.39 336.07,0 665.25,-144.86 667.56,-530.32 0,-385.47 -315.37,-483.68 -646.84,-532.78 -211.79,-31.92 -391.33,-78.59 -391.33,-245.51 0,-164.52 156.53,-260.26 372.92,-260.26 168.03,2.46 322.26,73.67 398.23,191.51l195.67 -139.95zm-4668.3 1478.03l273.94 0 -722.81 -1721.08 -280.83 0 -722.79 1721.08 273.92 0 151.92 -360.91 872.43 0 154.23 360.91zm-248.6 -611.34l-681.37 0 340.69 -819.22 340.68 819.22zm1876.07 -866.69c-135.82,-230.79 -368.32,-289.7 -600.81,-289.7 -290.03,0 -623.82,137.48 -621.51,493.49 0,368.29 303.86,454.2 623.82,500.87 225.6,31.91 412.05,95.74 412.05,282.34 0,216.06 -214.1,284.79 -407.44,284.79 -186.46,0 -386.73,-73.65 -501.83,-282.35l-193.37 137.49c147.33,289.72 384.44,390.39 692.89,390.39 336.08,0 665.25,-144.86 667.56,-530.32 0,-385.47 -315.37,-483.68 -646.83,-532.78 -211.79,-31.92 -391.34,-78.59 -391.34,-245.51 0,-164.52 156.53,-260.26 372.92,-260.26 168.03,2.46 322.26,73.67 398.23,191.51l195.67 -139.95zm1551.47 1207.95l-932.27 0 0 -461.57 888.54 0 0 -255.35 -888.54 0 0 -466.47 925.38 0 0 -267.61 -1183.2 0c0,573.68 0,1149.02 0,1721.08l1190.09 0 0 -270.07zm3215.78 270.07l0 -1721.08 -255.5 0 0 751.27 -851.72 0 0 -751.27 -257.81 0 0 1721.08 257.81 0 0 -714.46 851.72 0 0 714.46 255.5 0zm1134.85 -1750.54c-485.71,0 -828.7,378.1 -828.7,901.04 0,451.76 264.72,886.33 824.09,886.33 559.37,0 824.09,-424.76 824.09,-888.79 0,-464.03 -269.31,-896.14 -819.48,-898.58zm-573.17 903.5c0,-375.64 200.26,-653.09 573.17,-653.09 393.64,7.37 563.97,336.37 563.97,653.09 0,328.99 -168.04,630.98 -568.58,630.98 -398.23,0 -563.95,-326.53 -568.56,-630.98zm1956.63 -621.16l488.01 0c423.56,0 425.86,687.45 0,687.45l-488.01 0 0 -687.45zm488.01 940.34c771.14,-4.92 768.85,-1193.23 0,-1193.23 -246.3,0 -499.52,2.46 -745.82,2.46l0 1718.62 257.81 0 0 -527.86 488.01 0zm1102.62 -940.34l488.01 0c423.56,0 425.86,687.45 0,687.45l-488.01 0 0 -687.45zm488.01 940.34c771.14,-4.92 768.85,-1193.23 0,-1193.23 -246.29,0 -499.52,2.46 -745.81,2.46l0 1718.62 257.8 0 0 -527.86 488.01 0z"/>
   <path class="fil2" d="M3419.8 12903.12l0 -696.74 470.01 0 0 81.72 -377.58 0 0 217 326.97 0 0 81.75 -326.97 0 0 316.26 -92.43 0zm908.71 -63.27c-31.79,27.1 -62.45,46.08 -91.8,57.27 -29.35,11.18 -60.82,16.71 -94.54,16.71 -55.47,0 -98.11,-13.47 -127.97,-40.55 -29.84,-26.94 -44.75,-61.49 -44.75,-103.48 0,-24.65 5.67,-47.2 16.85,-67.63 11.37,-20.45 26.12,-36.65 44.29,-48.98 18.32,-12.32 38.75,-21.73 61.63,-28.06 16.88,-4.39 42.33,-8.61 76.22,-12.81 69.1,-8.13 120.19,-18 152.78,-29.37 0.33,-11.67 0.49,-19.14 0.49,-22.22 0,-34.7 -8.1,-59.19 -24.32,-73.47 -21.9,-19.31 -54.51,-28.88 -97.64,-28.88 -40.39,0 -70.23,7.14 -89.36,21.26 -19.3,14.11 -33.41,39.09 -42.65,75.09l-83.68 -11.68c7.63,-35.83 20.1,-64.87 37.63,-86.92 17.51,-22.06 42.81,-38.92 75.9,-50.92 32.93,-11.86 71.36,-17.86 114.82,-17.86 43.14,0 78.35,5.04 105.42,15.27 26.93,10.2 46.87,22.85 59.53,38.26 12.65,15.41 21.57,34.88 26.75,58.39 2.77,14.61 4.22,40.87 4.22,78.67l0 113.52c0,79.32 1.8,129.43 5.35,150.68 3.41,21.24 10.55,41.51 20.94,60.98l-89.54 0c-8.59,-18 -14.1,-39.09 -16.53,-63.27zm-6.82 -189.74c-31.14,12.65 -77.85,23.35 -140.13,32.1 -35.34,5.04 -60.32,10.72 -74.93,17.04 -14.59,6.33 -25.78,15.57 -33.74,27.57 -7.94,12.17 -12,25.63 -12,40.55 0,22.55 8.6,41.51 25.96,56.61 17.35,15.08 42.65,22.7 75.9,22.7 32.94,0 62.28,-7.13 88.07,-21.57 25.63,-14.27 44.61,-33.9 56.61,-58.72 9.24,-19.3 13.77,-47.67 13.77,-85.13l0.49 -31.14zm548.02 68.12l83.69 11.67c-9.25,57.58 -32.62,102.5 -70.39,135.09 -37.8,32.61 -84.34,48.84 -139.33,48.84 -68.92,0 -124.38,-22.55 -166.24,-67.65 -42,-45.08 -62.93,-109.62 -62.93,-193.64 0,-54.51 9.1,-102.01 27.1,-142.89 18,-40.71 45.41,-71.36 82.37,-91.62 36.82,-20.44 76.88,-30.67 120.34,-30.67 54.67,0 99.58,13.8 134.29,41.53 34.88,27.74 57.25,67.14 66.98,118.07l-82.7 12.65c-7.94,-33.9 -21.9,-59.36 -42.17,-76.55 -20.12,-17.04 -44.44,-25.63 -72.99,-25.63 -43.14,0 -78.18,15.41 -105.26,46.22 -26.91,30.98 -40.38,79.64 -40.38,146.46 0,67.79 12.98,116.93 38.93,147.58 26.11,30.65 60,46.06 101.69,46.06 33.73,0 61.79,-10.22 84.17,-30.82 22.53,-20.42 36.81,-52.06 42.81,-94.7zm156.66 -414.55l0 -97.29 85.64 0 0 97.29 -85.64 0zm0 599.44l0 -505.04 85.64 0 0 505.04 -85.64 0zm214.25 0l0 -696.74 85.63 0 0 696.74 -85.63 0zm218.13 -599.44l0 -97.29 85.64 0 0 97.29 -85.64 0zm0 599.44l0 -505.04 85.64 0 0 505.04 -85.64 0zm542.19 0l0 -64.07c-31.96,49.8 -78.98,74.78 -141.09,74.78 -40.23,0 -77.21,-11.04 -110.79,-33.26 -33.73,-22.06 -59.83,-53.04 -78.49,-92.6 -18.48,-39.74 -27.73,-85.3 -27.73,-136.89 0,-50.27 8.43,-95.84 25.14,-136.88 16.86,-40.86 42,-72.33 75.57,-94.05 33.41,-21.9 71.04,-32.78 112.4,-32.78 30.49,0 57.57,6.49 81.25,19.31 23.68,12.81 42.98,29.69 57.9,50.28l0 -250.56 85.62 0 0 696.74 -79.79 0zm-270.53 -251.88c0,64.55 13.63,112.73 41.04,144.68 27.25,31.94 59.53,47.84 96.66,47.84 37.47,0 69.26,-15.24 95.52,-45.73 26.12,-30.49 39.25,-77.04 39.25,-139.64 0,-68.78 -13.29,-119.38 -40.07,-151.64 -26.59,-32.29 -59.51,-48.35 -98.6,-48.35 -38.1,0 -69.89,15.43 -95.51,46.41 -25.47,30.98 -38.29,79.79 -38.29,146.43zm815.63 188.62c-31.8,27.1 -62.45,46.08 -91.81,57.27 -29.34,11.18 -60.81,16.71 -94.54,16.71 -55.46,0 -98.11,-13.47 -127.96,-40.55 -29.84,-26.94 -44.76,-61.49 -44.76,-103.48 0,-24.65 5.68,-47.2 16.86,-67.63 11.37,-20.45 26.12,-36.65 44.28,-48.98 18.33,-12.32 38.76,-21.73 61.64,-28.06 16.87,-4.39 42.32,-8.61 76.22,-12.81 69.1,-8.13 120.19,-18 152.78,-29.37 0.33,-11.67 0.49,-19.14 0.49,-22.22 0,-34.7 -8.1,-59.19 -24.33,-73.47 -21.89,-19.31 -54.5,-28.88 -97.64,-28.88 -40.38,0 -70.22,7.14 -89.35,21.26 -19.31,14.11 -33.41,39.09 -42.65,75.09l-83.69 -11.68c7.64,-35.83 20.11,-64.87 37.64,-86.92 17.51,-22.06 42.81,-38.92 75.89,-50.92 32.94,-11.86 71.37,-17.86 114.83,-17.86 43.14,0 78.34,5.04 105.41,15.27 26.94,10.2 46.88,22.85 59.53,38.26 12.65,15.41 21.57,34.88 26.76,58.39 2.77,14.61 4.22,40.87 4.22,78.67l0 113.52c0,79.32 1.8,129.43 5.35,150.68 3.41,21.24 10.55,41.51 20.93,60.98l-89.53 0c-8.59,-18 -14.1,-39.09 -16.53,-63.27zm-6.82 -189.74c-31.14,12.65 -77.85,23.35 -140.13,32.1 -35.35,5.04 -60.32,10.72 -74.94,17.04 -14.59,6.33 -25.77,15.57 -33.73,27.57 -7.94,12.17 -12,25.63 -12,40.55 0,22.55 8.59,41.51 25.96,56.61 17.35,15.08 42.65,22.7 75.9,22.7 32.93,0 62.28,-7.13 88.06,-21.57 25.64,-14.27 44.61,-33.9 56.61,-58.72 9.25,-19.3 13.78,-47.67 13.78,-85.13l0.49 -31.14zm544.12 253l0 -64.07c-31.96,49.8 -78.98,74.78 -141.09,74.78 -40.22,0 -77.2,-11.04 -110.78,-33.26 -33.73,-22.06 -59.84,-53.04 -78.49,-92.6 -18.49,-39.74 -27.73,-85.3 -27.73,-136.89 0,-50.27 8.43,-95.84 25.14,-136.88 16.86,-40.86 42,-72.33 75.57,-94.05 33.41,-21.9 71.04,-32.78 112.4,-32.78 30.48,0 57.57,6.49 81.25,19.31 23.67,12.81 42.98,29.69 57.9,50.28l0 -250.56 85.62 0 0 696.74 -79.8 0zm-270.52 -251.88c0,64.55 13.63,112.73 41.04,144.68 27.24,31.94 59.53,47.84 96.66,47.84 37.47,0 69.26,-15.24 95.52,-45.73 26.12,-30.49 39.24,-77.04 39.24,-139.64 0,-68.78 -13.29,-119.38 -40.06,-151.64 -26.59,-32.29 -59.51,-48.35 -98.6,-48.35 -38.1,0 -69.9,15.43 -95.52,46.41 -25.47,30.98 -38.28,79.79 -38.28,146.43zm830.22 88.4l88.55 11.67c-13.79,51.41 -39.59,91.46 -77.22,119.85 -37.61,28.38 -85.62,42.67 -144.17,42.67 -73.63,0 -132.01,-22.71 -175.15,-68.12 -43.16,-45.27 -64.73,-108.99 -64.73,-190.91 0,-84.66 21.73,-150.49 65.37,-197.21 43.63,-46.87 100.23,-70.24 169.8,-70.24 67.32,0 122.29,22.88 164.94,68.78 42.67,45.89 64.08,110.45 64.08,193.65 0,5.02 -0.16,12.66 -0.49,22.7l-376.11 0c3.24,55.32 18.81,97.8 47.04,127.15 28.06,29.36 63.26,44.12 105.25,44.12 31.31,0 58.06,-8.27 80.12,-24.82 22.23,-16.55 39.74,-42.97 52.72,-79.3zm-280.24 -137.21l281.21 0c-3.73,-42.49 -14.59,-74.29 -32.28,-95.52 -27.08,-32.94 -62.45,-49.47 -105.74,-49.47 -39.25,0 -72.17,13.14 -98.93,39.41 -26.59,26.28 -41.35,61.47 -44.26,105.58zm1091.8 137.21l88.56 11.67c-13.8,51.41 -39.59,91.46 -77.22,119.85 -37.62,28.38 -85.62,42.67 -144.17,42.67 -73.64,0 -132.01,-22.71 -175.15,-68.12 -43.16,-45.27 -64.74,-108.99 -64.74,-190.91 0,-84.66 21.74,-150.49 65.37,-197.21 43.63,-46.87 100.23,-70.24 169.8,-70.24 67.33,0 122.29,22.88 164.95,68.78 42.67,45.89 64.08,110.45 64.08,193.65 0,5.02 -0.17,12.66 -0.49,22.7l-376.12 0c3.25,55.32 18.82,97.8 47.04,127.15 28.06,29.36 63.27,44.12 105.26,44.12 31.3,0 58.06,-8.27 80.12,-24.82 22.22,-16.55 39.73,-42.97 52.71,-79.3zm-280.24 -137.21l281.22 0c-3.74,-42.49 -14.59,-74.29 -32.29,-95.52 -27.08,-32.94 -62.44,-49.47 -105.74,-49.47 -39.24,0 -72.16,13.14 -98.92,39.41 -26.6,26.28 -41.35,61.47 -44.27,105.58zm476.96 300.69l0 -505.04 76.88 0 0 71.36c15.73,-24.65 36.83,-44.61 63.1,-59.53 26.28,-15.08 56.12,-22.55 89.68,-22.55 37.3,0 67.96,7.8 91.8,23.2 23.84,15.58 40.7,37.15 50.43,65.04 40.22,-58.87 92.28,-88.23 156.52,-88.23 50.28,0 89.03,13.8 115.94,41.53 27.1,27.74 40.72,70.39 40.72,127.97l0 346.26 -85.62 0 0 -317.88c0,-34.06 -2.92,-58.71 -8.43,-73.81 -5.53,-15.08 -15.57,-27.08 -30.35,-36.33 -14.59,-9.24 -31.77,-13.77 -51.41,-13.77 -35.69,0 -65.2,11.84 -88.7,35.35 -23.53,23.69 -35.2,61.46 -35.2,113.37l0 293.06 -85.62 0 0 -327.77c0,-37.96 -6.98,-66.51 -20.94,-85.48 -13.94,-18.98 -36.81,-28.53 -68.45,-28.53 -24,0 -46.22,6.32 -66.65,18.96 -20.43,12.65 -35.2,31.14 -44.45,55.63 -9.08,24.34 -13.61,59.53 -13.61,105.42l0 261.77 -85.64 0zm1587.95 -244.41l92.43 23.35c-19.3,75.75 -54.02,133.31 -104.13,173.05 -50.1,39.75 -111.41,59.69 -183.9,59.69 -74.94,0 -135.91,-15.25 -182.95,-45.9 -47.04,-30.49 -82.7,-74.77 -107.21,-132.66 -24.49,-58.06 -36.81,-120.17 -36.81,-186.68 0,-72.51 13.79,-135.74 41.53,-189.76 27.73,-54 67.14,-95.03 118.23,-123.09 51.08,-28.06 107.35,-42 168.66,-42 69.75,0 128.29,17.68 175.66,53.19 47.51,35.52 80.6,85.31 99.25,149.53l-90.5 21.41c-16.06,-50.59 -39.57,-87.56 -70.24,-110.6 -30.65,-23.2 -69.25,-34.71 -115.79,-34.71 -53.36,0 -98.11,12.81 -133.96,38.44 -35.84,25.62 -61.14,60.17 -75.59,103.3 -14.59,43.3 -21.88,87.91 -21.88,133.8 0,59.2 8.59,110.93 25.78,155.05 17.2,44.28 43.95,77.2 80.27,99.09 36.35,21.9 75.59,32.77 117.91,32.77 51.59,0 95.04,-14.93 130.72,-44.61 35.69,-29.83 59.85,-73.95 72.51,-132.66zm163.64 -8.12c0,-93.23 25.93,-162.33 78,-207.27 43.3,-37.31 96.33,-55.96 158.78,-55.96 69.26,0 126.02,22.72 170.13,68.12 43.95,45.27 66.01,108.03 66.01,187.99 0,64.87 -9.73,115.78 -29.2,152.92 -19.45,37.15 -47.83,66.02 -85.13,86.6 -37.14,20.61 -77.86,30.84 -121.8,30.84 -70.72,0 -127.81,-22.55 -171.42,-67.81 -43.63,-45.25 -65.36,-110.44 -65.36,-195.44zm87.56 0.16c0,64.57 14.12,112.89 42.34,144.85 28.39,32.1 63.9,48.16 106.87,48.16 42.5,0 77.85,-16.06 106.23,-48.33 28.22,-32.28 42.33,-81.41 42.33,-147.43 0,-62.28 -14.27,-109.46 -42.66,-141.42 -28.38,-32.12 -63.73,-48.18 -105.9,-48.18 -42.98,0 -78.49,15.9 -106.87,47.86 -28.22,31.95 -42.34,80.12 -42.34,144.49zm485.73 252.37l0 -505.04 76.88 0 0 71.36c15.73,-24.65 36.83,-44.61 63.1,-59.53 26.28,-15.08 56.12,-22.55 89.68,-22.55 37.3,0 67.96,7.8 91.8,23.2 23.84,15.58 40.7,37.15 50.43,65.04 40.22,-58.87 92.28,-88.23 156.52,-88.23 50.28,0 89.03,13.8 115.95,41.53 27.09,27.74 40.71,70.39 40.71,127.97l0 346.26 -85.62 0 0 -317.88c0,-34.06 -2.92,-58.71 -8.43,-73.81 -5.53,-15.08 -15.57,-27.08 -30.35,-36.33 -14.59,-9.24 -31.77,-13.77 -51.4,-13.77 -35.7,0 -65.21,11.84 -88.71,35.35 -23.53,23.69 -35.2,61.46 -35.2,113.37l0 293.06 -85.62 0 0 -327.77c0,-37.96 -6.98,-66.51 -20.94,-85.48 -13.94,-18.98 -36.81,-28.53 -68.45,-28.53 -24,0 -46.22,6.32 -66.65,18.96 -20.43,12.65 -35.2,31.14 -44.45,55.63 -9.08,24.34 -13.61,59.53 -13.61,105.42l0 261.77 -85.64 0zm810.59 193.65l0 -698.69 77.85 0 0 66.34c18.33,-25.63 39.1,-44.94 62.29,-57.75 23.04,-12.82 51.1,-19.31 84,-19.31 43.15,0 81.09,11.04 114.01,33.27 32.94,22.06 57.76,53.34 74.61,93.56 16.72,40.38 25.15,84.49 25.15,132.68 0,51.4 -9.25,97.78 -27.74,139.15 -18.49,41.18 -45.41,72.81 -80.76,94.86 -35.21,21.9 -72.35,32.94 -111.26,32.94 -28.55,0 -54.18,-6.02 -76.71,-18.02 -22.71,-12 -41.2,-27.08 -55.79,-45.41l0 246.36 -85.64 0zm77.85 -443.1c0,64.73 13.14,112.56 39.25,143.54 26.28,30.98 58.08,46.55 95.37,46.55 37.94,0 70.39,-16.06 97.3,-48.16 27.1,-32.12 40.55,-81.75 40.55,-149.05 0,-64.22 -13.15,-112.23 -39.58,-144.19 -26.42,-31.94 -57.89,-47.84 -94.54,-47.84 -36.34,0 -68.44,17.02 -96.33,50.92 -28.06,34.06 -42.02,83.36 -42.02,148.23zm462.39 249.45l0 -505.04 76.88 0 0 77.36c19.61,-35.84 37.79,-59.53 54.49,-70.88 16.71,-11.51 35.03,-17.2 54.97,-17.2 28.88,0 58.25,9.08 88.07,27.1l-30.49 78.98c-20.75,-11.67 -41.53,-17.51 -62.28,-17.51 -18.65,0 -35.37,5.67 -50.12,16.86 -14.76,11.2 -25.31,26.77 -31.63,46.71 -9.57,30.35 -14.27,63.59 -14.27,99.74l0 263.88 -85.62 0zm654.89 -63.27c-31.8,27.1 -62.45,46.08 -91.81,57.27 -29.35,11.18 -60.81,16.71 -94.54,16.71 -55.47,0 -98.11,-13.47 -127.96,-40.55 -29.84,-26.94 -44.76,-61.49 -44.76,-103.48 0,-24.65 5.67,-47.2 16.86,-67.63 11.36,-20.45 26.12,-36.65 44.28,-48.98 18.33,-12.32 38.76,-21.73 61.63,-28.06 16.88,-4.39 42.33,-8.61 76.23,-12.81 69.1,-8.13 120.19,-18 152.78,-29.37 0.33,-11.67 0.49,-19.14 0.49,-22.22 0,-34.7 -8.1,-59.19 -24.33,-73.47 -21.89,-19.31 -54.5,-28.88 -97.64,-28.88 -40.38,0 -70.22,7.14 -89.35,21.26 -19.31,14.11 -33.41,39.09 -42.66,75.09l-83.68 -11.68c7.63,-35.83 20.11,-64.87 37.63,-86.92 17.52,-22.06 42.82,-38.92 75.9,-50.92 32.94,-11.86 71.37,-17.86 114.83,-17.86 43.14,0 78.34,5.04 105.41,15.27 26.94,10.2 46.88,22.85 59.53,38.26 12.65,15.41 21.57,34.88 26.76,58.39 2.77,14.61 4.22,40.87 4.22,78.67l0 113.52c0,79.32 1.79,129.43 5.35,150.68 3.4,21.24 10.55,41.51 20.93,60.98l-89.53 0c-8.6,-18 -14.11,-39.09 -16.53,-63.27zm-6.82 -189.74c-31.14,12.65 -77.86,23.35 -140.13,32.1 -35.35,5.04 -60.33,10.72 -74.94,17.04 -14.59,6.33 -25.77,15.57 -33.73,27.57 -7.94,12.17 -12,25.63 -12,40.55 0,22.55 8.59,41.51 25.96,56.61 17.34,15.08 42.65,22.7 75.89,22.7 32.94,0 62.29,-7.13 88.07,-21.57 25.63,-14.27 44.61,-33.9 56.61,-58.72 9.25,-19.3 13.78,-47.67 13.78,-85.13l0.49 -31.14zm184.07 102.17l84.66 -13.63c4.69,33.9 18,59.86 39.73,78.02 21.74,18 52.23,27.08 91.15,27.08 39.41,0 68.61,-7.94 87.73,-24 18.98,-15.9 28.55,-34.71 28.55,-56.28 0,-19.31 -8.59,-34.55 -25.63,-45.58 -12,-7.63 -41.19,-17.2 -87.57,-29.03 -62.61,-15.74 -105.9,-29.35 -130.23,-40.88 -24.16,-11.67 -42.5,-27.57 -54.99,-48 -12.48,-20.28 -18.8,-42.82 -18.8,-67.47 0,-22.55 5.18,-43.3 15.41,-62.45 10.36,-19.14 24.32,-35.04 42,-47.69 13.3,-9.73 31.46,-18 54.32,-24.81 23.04,-6.82 47.53,-10.23 73.82,-10.23 39.57,0 74.28,5.69 104.11,17.2 30,11.35 52.06,26.92 66.34,46.39 14.1,19.63 24,45.74 29.35,78.51l-83.68 11.67c-3.74,-26.28 -14.76,-46.87 -32.92,-61.63 -18.17,-14.77 -43.8,-22.06 -77.04,-22.06 -39.1,0 -67.16,6.49 -83.85,19.47 -16.71,12.96 -25.14,28.2 -25.14,45.57 0,11.02 3.41,21.08 10.39,30 6.96,9.08 17.84,16.71 32.75,22.71 8.6,3.25 33.57,10.54 75.43,21.9 60.33,16.06 102.5,29.35 126.5,39.57 24,10.23 42.81,25.31 56.44,44.78 13.78,19.61 20.6,43.93 20.6,73.14 0,28.38 -8.27,55.14 -24.98,80.27 -16.72,25.14 -40.72,44.61 -72.02,58.39 -31.47,13.79 -66.98,20.61 -106.54,20.61 -65.53,0 -115.64,-13.63 -150.03,-40.71 -34.38,-27.27 -56.28,-67.49 -65.85,-120.83z"/>
   <path class="fil3" d="M6861.88 3902.18l-1416 0c-192.14,0 -349.37,157.21 -349.37,349.37l0 0c0,192.19 157.23,349.4 349.37,349.4l1416 0 292.97 0c192.09,0 349.35,157.23 349.35,349.39l0 0c0,192.17 -157.26,349.4 -349.35,349.4l-292.97 0 -860.41 0c-192.07,0 -349.32,157.21 -349.32,349.39l0 0c0,192.17 157.25,349.4 349.32,349.4l860.41 0 0 1.4c177.65,15.88 318.23,166.3 318.23,347.97l0 0c0,181.69 -140.58,332.12 -318.23,348l0 1.39 -1063.81 0c-192.21,0 -349.4,157.24 -349.4,349.4l0 0c0,192.19 157.19,349.39 349.4,349.39l1063.81 0 387.31 0c192.27,0 349.45,157.21 349.45,349.4l0 0c0,192.16 -157.18,349.4 -349.45,349.4l-1008.79 0c-192.09,0 -349.32,157.2 -349.32,349.39l0 0c0,192.16 157.23,349.37 349.32,349.37 1106.34,0 2212.63,0 3318.97,0 271.94,0 333.02,-2.42 585.11,-147.96 503.53,-287.09 1032.15,-611.78 1536.28,-897.77 140.8,-81.29 228.33,-208.09 228.33,-379.79 7.41,-681.71 7.28,-1262.28 22.29,-1943.66 0,-204.48 -54.67,-375.98 -217.91,-470.21 -3.3,-1.94 -1111.73,-646.68 -1619.43,-937.19 -148.21,-84.8 -235.1,-112.13 -516.98,-113.53l-1059.37 -1.32 -1655.82 0zm2774.66 3953.27l16.08 -1698.18 -1319.17 -572.61 -0.85 1342.23c9.55,184.64 54.52,209.02 176.85,279.44 358.07,206.22 776.47,480.48 1127.09,649.13zm-1170.32 -2429.3c18.62,7.48 49.96,20.86 90.64,38.52l1177.87 500.34 1278.41 -545.42 -32.74 -31.02c-3.69,-2.96 -12.29,-10.89 -16.9,-14.41l-242.04 -143.32c-177.45,-105.35 -860.49,-336.28 -973.59,-334.81 -110.21,1.47 -1209.22,451.38 -1281.65,530.12zm1374.34 715.77l-5.51 1693.36c107.56,-15.04 961.1,-528.67 1131.77,-623.92 246.8,-137.76 182.21,-251.12 182.21,-700.04 0,-307.16 -1.87,-614.85 0.2,-921.96l-1308.67 552.56zm-5393.8 -847.73c199.32,0 360.89,161.57 360.89,360.89 0,199.32 -161.57,360.89 -360.89,360.89 -199.32,0 -360.89,-161.57 -360.89,-360.89 0,-199.32 161.57,-360.89 360.89,-360.89zm354.26 2795.13c199.32,0 360.89,161.57 360.89,360.89 0,199.32 -161.57,360.89 -360.89,360.89 -199.32,0 -360.89,-161.57 -360.89,-360.89 0,-199.32 161.57,-360.89 360.89,-360.89z"/>
  </g>
 </g>
</svg>
