<?xml version="1.0" encoding="UTF-8"?>
<!DOCTYPE svg PUBLIC "-//W3C//DTD SVG 1.1//EN" "http://www.w3.org/Graphics/SVG/1.1/DTD/svg11.dtd">
<!-- Creator: CorelDRAW 2019 (64 Bit) -->
<svg xmlns="http://www.w3.org/2000/svg" xml:space="preserve" width="143.623mm" height="91.9517mm" version="1.1" style="shape-rendering:geometricPrecision; text-rendering:geometricPrecision; image-rendering:optimizeQuality; fill-rule:evenodd; clip-rule:evenodd"
viewBox="0 0 14362.28 9195.17"
 xmlns:xlink="http://www.w3.org/1999/xlink">
 <defs>
  <style type="text/css">
   <![CDATA[
    .fil1 {fill:#FEFEFE}
    .fil0 {fill:#FEFEFE;fill-rule:nonzero}
   ]]>
  </style>
 </defs>
 <g id="Camada_x0020_1">
  <metadata id="CorelCorpID_0Corel-Layer"/>
  <g id="_2459958712064">
   <path class="fil0" d="M1190.15 7370.32l-932.33 0 0 -461.6 888.6 0 0 -255.37 -888.6 0 0 -466.5 925.44 0 0 -267.63 -1183.26 0c0,573.72 0,1149.09 0,1721.19l1190.15 0 0 -270.09zm6270.83 -1208.02c-135.83,-230.8 -368.34,-289.72 -600.85,-289.72 -290.05,0 -623.86,137.49 -621.56,493.52 0,368.31 303.89,454.23 623.87,500.9 225.61,31.91 412.07,95.75 412.07,282.36 0,216.07 -214.1,284.81 -407.46,284.81 -186.47,0 -386.75,-73.65 -501.86,-282.37l-193.38 137.5c147.34,289.74 384.46,390.41 692.93,390.41 336.09,0 665.29,-144.87 667.6,-530.35 0,-385.49 -315.39,-483.71 -646.88,-532.81 -211.8,-31.92 -391.35,-78.59 -391.35,-245.53 0,-164.53 156.54,-260.28 372.94,-260.28 168.04,2.46 322.28,73.67 398.25,191.52l195.68 -139.96zm-4668.59 1478.12l273.96 0 -722.86 -1721.19 -280.85 0 -722.84 1721.19 273.94 0 151.93 -360.93 872.48 0 154.24 360.93zm-248.62 -611.38l-681.41 0 340.71 -819.27 340.7 819.27zm1876.19 -866.74c-135.83,-230.8 -368.34,-289.72 -600.85,-289.72 -290.05,0 -623.86,137.49 -621.55,493.52 0,368.31 303.88,454.23 623.86,500.9 225.61,31.91 412.08,95.75 412.08,282.36 0,216.07 -214.11,284.81 -407.47,284.81 -186.47,0 -386.75,-73.65 -501.86,-282.37l-193.38 137.5c147.34,289.74 384.46,390.41 692.93,390.41 336.1,0 665.29,-144.87 667.6,-530.35 0,-385.49 -315.39,-483.71 -646.87,-532.81 -211.8,-31.92 -391.36,-78.59 -391.36,-245.53 0,-164.53 156.54,-260.28 372.94,-260.28 168.04,2.46 322.28,73.67 398.25,191.52l195.68 -139.96zm1551.56 1208.02l-932.33 0 0 -461.6 888.6 0 0 -255.37 -888.6 0 0 -466.5 925.44 0 0 -267.63 -1183.27 0c0,573.72 0,1149.09 0,1721.19l1190.16 0 0 -270.09zm3215.99 270.09l0 -1721.19 -255.52 0 0 751.32 -851.77 0 0 -751.32 -257.83 0 0 1721.19 257.83 0 0 -714.5 851.77 0 0 714.5 255.52 0zm1134.92 -1750.65c-485.74,0 -828.75,378.12 -828.75,901.1 0,451.79 264.74,886.39 824.14,886.39 559.4,0 824.14,-424.79 824.14,-888.85 0,-464.06 -269.33,-896.2 -819.53,-898.64zm-573.21 903.56c0,-375.66 200.27,-653.13 573.21,-653.13 393.66,7.37 564.01,336.39 564.01,653.13 0,329.01 -168.05,631.02 -568.62,631.02 -398.25,0 -563.99,-326.55 -568.6,-631.02zm1956.75 -621.2l488.04 0c423.59,0 425.89,687.49 0,687.49l-488.04 0 0 -687.49zm488.04 940.4c771.19,-4.92 768.9,-1193.3 0,-1193.3 -246.32,0 -499.55,2.46 -745.87,2.46l0 1718.73 257.83 0 0 -527.89 488.04 0zm1102.69 -940.4l488.04 0c423.59,0 425.89,687.49 0,687.49l-488.04 0 0 -687.49zm488.04 940.4c771.19,-4.92 768.9,-1193.3 0,-1193.3 -246.31,0 -499.55,2.46 -745.86,2.46l0 1718.73 257.82 0 0 -527.89 488.04 0z"/>
   <path class="fil0" d="M2101.15 9001.51l0 -696.78 470.04 0 0 81.73 -377.6 0 0 217.01 326.99 0 0 81.76 -326.99 0 0 316.28 -92.44 0zm908.77 -63.28c-31.79,27.1 -62.45,46.08 -91.81,57.27 -29.35,11.18 -60.82,16.71 -94.55,16.71 -55.47,0 -98.12,-13.47 -127.98,-40.55 -29.84,-26.94 -44.75,-61.49 -44.75,-103.49 0,-24.65 5.67,-47.2 16.85,-67.63 11.37,-20.45 26.12,-36.65 44.29,-48.98 18.32,-12.32 38.75,-21.73 61.63,-28.06 16.88,-4.39 42.33,-8.61 76.22,-12.81 69.1,-8.13 120.2,-18 152.79,-29.37 0.33,-11.67 0.49,-19.14 0.49,-22.22 0,-34.7 -8.1,-59.19 -24.32,-73.47 -21.9,-19.31 -54.51,-28.88 -97.65,-28.88 -40.39,0 -70.23,7.14 -89.37,21.26 -19.3,14.11 -33.41,39.09 -42.65,75.09l-83.69 -11.68c7.63,-35.83 20.1,-64.87 37.63,-86.93 17.51,-22.06 42.81,-38.92 75.9,-50.92 32.93,-11.86 71.36,-17.86 114.83,-17.86 43.14,0 78.35,5.04 105.43,15.27 26.93,10.2 46.87,22.85 59.53,38.26 12.65,15.41 21.57,34.88 26.75,58.39 2.77,14.61 4.22,40.87 4.22,78.67l0 113.53c0,79.32 1.8,129.44 5.35,150.69 3.41,21.24 10.55,41.51 20.94,60.98l-89.55 0c-8.59,-18 -14.1,-39.09 -16.53,-63.27zm-6.82 -189.75c-31.14,12.65 -77.85,23.35 -140.14,32.1 -35.34,5.04 -60.32,10.72 -74.93,17.04 -14.59,6.33 -25.78,15.57 -33.74,27.57 -7.94,12.17 -12,25.63 -12,40.55 0,22.55 8.6,41.51 25.96,56.61 17.35,15.08 42.65,22.7 75.9,22.7 32.94,0 62.28,-7.13 88.08,-21.57 25.63,-14.27 44.61,-33.9 56.61,-58.72 9.24,-19.3 13.77,-47.67 13.77,-85.14l0.49 -31.14zm548.05 68.12l83.7 11.67c-9.25,57.58 -32.62,102.51 -70.39,135.1 -37.8,32.61 -84.35,48.84 -139.34,48.84 -68.92,0 -124.39,-22.55 -166.25,-67.65 -42,-45.08 -62.93,-109.63 -62.93,-193.65 0,-54.51 9.1,-102.02 27.1,-142.9 18,-40.71 45.41,-71.36 82.38,-91.63 36.82,-20.44 76.88,-30.67 120.35,-30.67 54.67,0 99.59,13.8 134.3,41.53 34.88,27.74 57.25,67.14 66.98,118.08l-82.71 12.65c-7.94,-33.9 -21.9,-59.36 -42.17,-76.55 -20.12,-17.04 -44.44,-25.63 -72.99,-25.63 -43.14,0 -78.18,15.41 -105.27,46.22 -26.91,30.98 -40.38,79.64 -40.38,146.47 0,67.79 12.98,116.94 38.93,147.59 26.11,30.65 60,46.06 101.7,46.06 33.73,0 61.79,-10.22 84.18,-30.82 22.53,-20.42 36.81,-52.06 42.81,-94.71zm156.67 -414.57l0 -97.3 85.65 0 0 97.3 -85.65 0zm0 599.48l0 -505.07 85.65 0 0 505.07 -85.65 0zm214.27 0l0 -696.78 85.64 0 0 696.78 -85.64 0zm218.14 -599.48l0 -97.3 85.65 0 0 97.3 -85.65 0zm0 599.48l0 -505.07 85.65 0 0 505.07 -85.65 0zm542.22 0l0 -64.07c-31.96,49.8 -78.98,74.78 -141.1,74.78 -40.23,0 -77.21,-11.04 -110.8,-33.26 -33.73,-22.06 -59.83,-53.04 -78.49,-92.61 -18.48,-39.74 -27.73,-85.31 -27.73,-136.9 0,-50.27 8.43,-95.85 25.14,-136.89 16.86,-40.86 42,-72.33 75.57,-94.06 33.41,-21.9 71.04,-32.78 112.41,-32.78 30.49,0 57.57,6.49 81.26,19.31 23.68,12.81 42.98,29.69 57.9,50.28l0 -250.58 85.63 0 0 696.78 -79.79 0zm-270.54 -251.9c0,64.55 13.63,112.74 41.04,144.69 27.25,31.94 59.53,47.84 96.67,47.84 37.47,0 69.26,-15.24 95.53,-45.73 26.12,-30.49 39.25,-77.04 39.25,-139.65 0,-68.78 -13.29,-119.39 -40.07,-151.65 -26.59,-32.29 -59.51,-48.35 -98.61,-48.35 -38.1,0 -69.89,15.43 -95.52,46.41 -25.47,30.98 -38.29,79.79 -38.29,146.44zm815.68 188.63c-31.8,27.1 -62.45,46.08 -91.82,57.27 -29.34,11.18 -60.81,16.71 -94.55,16.71 -55.46,0 -98.12,-13.47 -127.97,-40.55 -29.84,-26.94 -44.76,-61.49 -44.76,-103.49 0,-24.65 5.68,-47.2 16.86,-67.63 11.37,-20.45 26.12,-36.65 44.28,-48.98 18.33,-12.32 38.76,-21.73 61.64,-28.06 16.87,-4.39 42.32,-8.61 76.22,-12.81 69.1,-8.13 120.2,-18 152.79,-29.37 0.33,-11.67 0.49,-19.14 0.49,-22.22 0,-34.7 -8.1,-59.19 -24.33,-73.47 -21.89,-19.31 -54.5,-28.88 -97.65,-28.88 -40.38,0 -70.22,7.14 -89.36,21.26 -19.31,14.11 -33.41,39.09 -42.65,75.09l-83.7 -11.68c7.64,-35.83 20.11,-64.87 37.64,-86.93 17.51,-22.06 42.81,-38.92 75.89,-50.92 32.94,-11.86 71.37,-17.86 114.84,-17.86 43.14,0 78.34,5.04 105.42,15.27 26.94,10.2 46.88,22.85 59.53,38.26 12.65,15.41 21.57,34.88 26.76,58.39 2.77,14.61 4.22,40.87 4.22,78.67l0 113.53c0,79.32 1.8,129.44 5.35,150.69 3.41,21.24 10.55,41.51 20.93,60.98l-89.54 0c-8.59,-18 -14.1,-39.09 -16.53,-63.27zm-6.82 -189.75c-31.14,12.65 -77.85,23.35 -140.14,32.1 -35.35,5.04 -60.32,10.72 -74.94,17.04 -14.59,6.33 -25.77,15.57 -33.73,27.57 -7.94,12.17 -12,25.63 -12,40.55 0,22.55 8.59,41.51 25.96,56.61 17.35,15.08 42.65,22.7 75.9,22.7 32.93,0 62.28,-7.13 88.07,-21.57 25.64,-14.27 44.61,-33.9 56.61,-58.72 9.25,-19.3 13.78,-47.67 13.78,-85.14l0.49 -31.14zm544.15 253.02l0 -64.07c-31.96,49.8 -78.98,74.78 -141.1,74.78 -40.22,0 -77.2,-11.04 -110.79,-33.26 -33.73,-22.06 -59.84,-53.04 -78.49,-92.61 -18.49,-39.74 -27.73,-85.31 -27.73,-136.9 0,-50.27 8.43,-95.85 25.14,-136.89 16.86,-40.86 42,-72.33 75.57,-94.06 33.41,-21.9 71.04,-32.78 112.41,-32.78 30.48,0 57.57,6.49 81.26,19.31 23.67,12.81 42.98,29.69 57.9,50.28l0 -250.58 85.63 0 0 696.78 -79.8 0zm-270.53 -251.9c0,64.55 13.63,112.74 41.04,144.69 27.24,31.94 59.53,47.84 96.67,47.84 37.47,0 69.26,-15.24 95.53,-45.73 26.12,-30.49 39.24,-77.04 39.24,-139.65 0,-68.78 -13.29,-119.39 -40.06,-151.65 -26.59,-32.29 -59.51,-48.35 -98.61,-48.35 -38.1,0 -69.9,15.43 -95.53,46.41 -25.47,30.98 -38.28,79.79 -38.28,146.44zm830.27 88.4l88.56 11.67c-13.79,51.41 -39.59,91.47 -77.22,119.86 -37.61,28.38 -85.63,42.67 -144.18,42.67 -73.63,0 -132.02,-22.71 -175.16,-68.12 -43.16,-45.27 -64.73,-109 -64.73,-190.92 0,-84.67 21.73,-150.5 65.37,-197.22 43.63,-46.87 100.24,-70.24 169.81,-70.24 67.32,0 122.3,22.88 164.95,68.78 42.67,45.89 64.08,110.46 64.08,193.66 0,5.02 -0.16,12.66 -0.49,22.7l-376.13 0c3.24,55.32 18.81,97.81 47.04,127.16 28.06,29.36 63.26,44.12 105.26,44.12 31.31,0 58.06,-8.27 80.12,-24.82 22.23,-16.55 39.74,-42.97 52.72,-79.3zm-280.26 -137.21l281.23 0c-3.73,-42.49 -14.59,-74.29 -32.28,-95.53 -27.08,-32.94 -62.45,-49.47 -105.75,-49.47 -39.25,0 -72.17,13.14 -98.94,39.41 -26.59,26.28 -41.35,61.47 -44.26,105.59zm1091.87 137.21l88.57 11.67c-13.8,51.41 -39.59,91.47 -77.22,119.86 -37.62,28.38 -85.63,42.67 -144.18,42.67 -73.64,0 -132.02,-22.71 -175.16,-68.12 -43.16,-45.27 -64.74,-109 -64.74,-190.92 0,-84.67 21.74,-150.5 65.37,-197.22 43.63,-46.87 100.24,-70.24 169.81,-70.24 67.33,0 122.3,22.88 164.96,68.78 42.67,45.89 64.08,110.46 64.08,193.66 0,5.02 -0.17,12.66 -0.49,22.7l-376.14 0c3.25,55.32 18.82,97.81 47.04,127.16 28.06,29.36 63.27,44.12 105.27,44.12 31.3,0 58.06,-8.27 80.12,-24.82 22.22,-16.55 39.73,-42.97 52.71,-79.3zm-280.26 -137.21l281.24 0c-3.74,-42.49 -14.59,-74.29 -32.29,-95.53 -27.08,-32.94 -62.44,-49.47 -105.75,-49.47 -39.24,0 -72.16,13.14 -98.93,39.41 -26.6,26.28 -41.35,61.47 -44.27,105.59zm476.99 300.71l0 -505.07 76.88 0 0 71.36c15.73,-24.65 36.83,-44.61 63.1,-59.53 26.28,-15.08 56.12,-22.55 89.69,-22.55 37.3,0 67.96,7.8 91.81,23.2 23.84,15.58 40.7,37.15 50.43,65.04 40.22,-58.87 92.29,-88.24 156.53,-88.24 50.28,0 89.04,13.8 115.95,41.53 27.1,27.74 40.72,70.39 40.72,127.98l0 346.28 -85.63 0 0 -317.9c0,-34.06 -2.92,-58.71 -8.43,-73.81 -5.53,-15.08 -15.57,-27.08 -30.35,-36.33 -14.59,-9.24 -31.77,-13.77 -51.41,-13.77 -35.69,0 -65.2,11.84 -88.71,35.35 -23.53,23.69 -35.2,61.46 -35.2,113.38l0 293.08 -85.63 0 0 -327.79c0,-37.96 -6.98,-66.51 -20.94,-85.49 -13.94,-18.98 -36.81,-28.53 -68.45,-28.53 -24,0 -46.22,6.32 -66.65,18.96 -20.43,12.65 -35.2,31.14 -44.45,55.63 -9.08,24.34 -13.61,59.53 -13.61,105.43l0 261.79 -85.65 0zm1588.05 -244.43l92.44 23.35c-19.3,75.75 -54.02,133.32 -104.14,173.06 -50.1,39.75 -111.42,59.69 -183.91,59.69 -74.94,0 -135.92,-15.25 -182.96,-45.9 -47.04,-30.49 -82.71,-74.77 -107.22,-132.67 -24.49,-58.06 -36.81,-120.18 -36.81,-186.69 0,-72.51 13.79,-135.75 41.53,-189.77 27.73,-54 67.14,-95.04 118.24,-123.1 51.08,-28.06 107.36,-42 168.67,-42 69.75,0 128.3,17.68 175.67,53.19 47.51,35.52 80.61,85.32 99.26,149.54l-90.51 21.41c-16.06,-50.59 -39.57,-87.57 -70.24,-110.61 -30.65,-23.2 -69.25,-34.71 -115.8,-34.71 -53.36,0 -98.12,12.81 -133.97,38.44 -35.84,25.62 -61.14,60.17 -75.59,103.31 -14.59,43.3 -21.88,87.92 -21.88,133.81 0,59.2 8.59,110.94 25.78,155.06 17.2,44.28 43.95,77.2 80.28,99.1 36.35,21.9 75.59,32.77 117.92,32.77 51.59,0 95.05,-14.93 130.73,-44.61 35.69,-29.83 59.85,-73.95 72.51,-132.67zm163.65 -8.12c0,-93.24 25.93,-162.34 78,-207.28 43.3,-37.31 96.34,-55.96 158.79,-55.96 69.26,0 126.03,22.72 170.14,68.12 43.95,45.27 66.01,108.04 66.01,188 0,64.87 -9.73,115.79 -29.2,152.93 -19.45,37.15 -47.83,66.02 -85.14,86.61 -37.14,20.61 -77.86,30.84 -121.81,30.84 -70.72,0 -127.82,-22.55 -171.43,-67.81 -43.63,-45.25 -65.36,-110.45 -65.36,-195.45zm87.56 0.16c0,64.57 14.12,112.9 42.34,144.86 28.39,32.1 63.9,48.16 106.88,48.16 42.5,0 77.85,-16.06 106.24,-48.33 28.22,-32.28 42.33,-81.42 42.33,-147.44 0,-62.28 -14.27,-109.47 -42.66,-141.43 -28.38,-32.12 -63.73,-48.18 -105.91,-48.18 -42.98,0 -78.49,15.9 -106.88,47.86 -28.22,31.95 -42.34,80.12 -42.34,144.5zm485.76 252.39l0 -505.07 76.88 0 0 71.36c15.73,-24.65 36.83,-44.61 63.1,-59.53 26.28,-15.08 56.12,-22.55 89.69,-22.55 37.3,0 67.96,7.8 91.81,23.2 23.84,15.58 40.7,37.15 50.43,65.04 40.22,-58.87 92.29,-88.24 156.53,-88.24 50.28,0 89.04,13.8 115.96,41.53 27.09,27.74 40.71,70.39 40.71,127.98l0 346.28 -85.63 0 0 -317.9c0,-34.06 -2.92,-58.71 -8.43,-73.81 -5.53,-15.08 -15.57,-27.08 -30.35,-36.33 -14.59,-9.24 -31.77,-13.77 -51.4,-13.77 -35.7,0 -65.21,11.84 -88.72,35.35 -23.53,23.69 -35.2,61.46 -35.2,113.38l0 293.08 -85.63 0 0 -327.79c0,-37.96 -6.98,-66.51 -20.94,-85.49 -13.94,-18.98 -36.81,-28.53 -68.45,-28.53 -24,0 -46.22,6.32 -66.65,18.96 -20.43,12.65 -35.2,31.14 -44.45,55.63 -9.08,24.34 -13.61,59.53 -13.61,105.43l0 261.79 -85.65 0zm810.65 193.66l0 -698.73 77.85 0 0 66.34c18.33,-25.63 39.1,-44.94 62.29,-57.75 23.04,-12.82 51.1,-19.31 84.01,-19.31 43.15,0 81.1,11.04 114.02,33.27 32.94,22.06 57.76,53.34 74.61,93.57 16.72,40.38 25.15,84.5 25.15,132.69 0,51.4 -9.25,97.79 -27.74,139.16 -18.49,41.18 -45.41,72.81 -80.77,94.87 -35.21,21.9 -72.35,32.94 -111.27,32.94 -28.55,0 -54.18,-6.02 -76.71,-18.02 -22.71,-12 -41.2,-27.08 -55.79,-45.41l0 246.38 -85.65 0zm77.85 -443.13c0,64.73 13.14,112.57 39.25,143.55 26.28,30.98 58.08,46.55 95.38,46.55 37.94,0 70.39,-16.06 97.31,-48.16 27.1,-32.12 40.55,-81.76 40.55,-149.06 0,-64.22 -13.15,-112.24 -39.58,-144.2 -26.42,-31.94 -57.89,-47.84 -94.55,-47.84 -36.34,0 -68.44,17.02 -96.34,50.92 -28.06,34.06 -42.02,83.37 -42.02,148.24zm462.42 249.47l0 -505.07 76.88 0 0 77.36c19.61,-35.84 37.79,-59.53 54.49,-70.88 16.71,-11.51 35.03,-17.2 54.97,-17.2 28.88,0 58.25,9.08 88.08,27.1l-30.49 78.98c-20.75,-11.67 -41.53,-17.51 -62.28,-17.51 -18.65,0 -35.37,5.67 -50.12,16.86 -14.76,11.2 -25.31,26.77 -31.63,46.71 -9.57,30.35 -14.27,63.59 -14.27,99.75l0 263.9 -85.63 0zm654.93 -63.28c-31.8,27.1 -62.45,46.08 -91.82,57.27 -29.35,11.18 -60.81,16.71 -94.55,16.71 -55.47,0 -98.12,-13.47 -127.97,-40.55 -29.84,-26.94 -44.76,-61.49 -44.76,-103.49 0,-24.65 5.67,-47.2 16.86,-67.63 11.36,-20.45 26.12,-36.65 44.28,-48.98 18.33,-12.32 38.76,-21.73 61.63,-28.06 16.88,-4.39 42.33,-8.61 76.23,-12.81 69.1,-8.13 120.2,-18 152.79,-29.37 0.33,-11.67 0.49,-19.14 0.49,-22.22 0,-34.7 -8.1,-59.19 -24.33,-73.47 -21.89,-19.31 -54.5,-28.88 -97.65,-28.88 -40.38,0 -70.22,7.14 -89.36,21.26 -19.31,14.11 -33.41,39.09 -42.66,75.09l-83.69 -11.68c7.63,-35.83 20.11,-64.87 37.63,-86.93 17.52,-22.06 42.82,-38.92 75.9,-50.92 32.94,-11.86 71.37,-17.86 114.84,-17.86 43.14,0 78.34,5.04 105.42,15.27 26.94,10.2 46.88,22.85 59.53,38.26 12.65,15.41 21.57,34.88 26.76,58.39 2.77,14.61 4.22,40.87 4.22,78.67l0 113.53c0,79.32 1.79,129.44 5.35,150.69 3.4,21.24 10.55,41.51 20.93,60.98l-89.54 0c-8.6,-18 -14.11,-39.09 -16.53,-63.27zm-6.82 -189.75c-31.14,12.65 -77.86,23.35 -140.14,32.1 -35.35,5.04 -60.33,10.72 -74.94,17.04 -14.59,6.33 -25.77,15.57 -33.73,27.57 -7.94,12.17 -12,25.63 -12,40.55 0,22.55 8.59,41.51 25.96,56.61 17.34,15.08 42.65,22.7 75.89,22.7 32.94,0 62.29,-7.13 88.08,-21.57 25.63,-14.27 44.61,-33.9 56.61,-58.72 9.25,-19.3 13.78,-47.67 13.78,-85.14l0.49 -31.14zm184.08 102.18l84.67 -13.63c4.69,33.9 18,59.86 39.73,78.02 21.74,18 52.23,27.08 91.16,27.08 39.41,0 68.61,-7.94 87.74,-24 18.98,-15.9 28.55,-34.71 28.55,-56.28 0,-19.31 -8.59,-34.55 -25.63,-45.58 -12,-7.63 -41.19,-17.2 -87.58,-29.03 -62.61,-15.74 -105.91,-29.35 -130.24,-40.88 -24.16,-11.67 -42.5,-27.57 -54.99,-48 -12.48,-20.28 -18.8,-42.82 -18.8,-67.47 0,-22.55 5.18,-43.3 15.41,-62.45 10.36,-19.14 24.32,-35.04 42,-47.69 13.3,-9.73 31.46,-18 54.32,-24.81 23.04,-6.82 47.53,-10.23 73.82,-10.23 39.57,0 74.28,5.69 104.12,17.2 30,11.35 52.06,26.92 66.34,46.39 14.1,19.63 24,45.74 29.35,78.51l-83.69 11.67c-3.74,-26.28 -14.76,-46.87 -32.92,-61.63 -18.17,-14.77 -43.8,-22.06 -77.04,-22.06 -39.1,0 -67.16,6.49 -83.86,19.47 -16.71,12.96 -25.14,28.2 -25.14,45.57 0,11.02 3.41,21.08 10.39,30 6.96,9.08 17.84,16.71 32.75,22.71 8.6,3.25 33.57,10.54 75.43,21.9 60.33,16.06 102.51,29.35 126.51,39.57 24,10.23 42.81,25.31 56.44,44.78 13.78,19.61 20.6,43.93 20.6,73.14 0,28.38 -8.27,55.14 -24.98,80.28 -16.72,25.14 -40.72,44.61 -72.02,58.39 -31.47,13.79 -66.98,20.61 -106.55,20.61 -65.53,0 -115.65,-13.63 -150.04,-40.71 -34.38,-27.27 -56.28,-67.49 -65.85,-120.84z"/>
   <path class="fil1" d="M5543.45 0l-1416.09 0c-192.15,0 -349.39,157.22 -349.39,349.39l0 0c0,192.2 157.24,349.42 349.39,349.42l1416.09 0 292.99 0c192.1,0 349.37,157.24 349.37,349.41l0 0c0,192.18 -157.27,349.42 -349.37,349.42l-292.99 0 -860.46 0c-192.08,0 -349.34,157.22 -349.34,349.41l0 0c0,192.18 157.26,349.42 349.34,349.42l860.46 0 0 1.4c177.66,15.88 318.25,166.31 318.25,347.99l0 0c0,181.7 -140.59,332.14 -318.25,348.02l0 1.39 -1063.88 0c-192.22,0 -349.42,157.25 -349.42,349.42l0 0c0,192.2 157.2,349.41 349.42,349.41l1063.88 0 387.33 0c192.28,0 349.47,157.22 349.47,349.42l0 0c0,192.17 -157.19,349.42 -349.47,349.42l-1008.85 0c-192.1,0 -349.34,157.21 -349.34,349.41l0 0c0,192.17 157.24,349.39 349.34,349.39 1106.41,0 2212.77,0 3319.18,0 271.96,0 333.04,-2.42 585.15,-147.97 503.56,-287.11 1032.21,-611.82 1536.38,-897.83 140.81,-81.3 228.34,-208.1 228.34,-379.81 7.41,-681.75 7.28,-1262.36 22.29,-1943.78 0,-204.49 -54.67,-376 -217.92,-470.24 -3.3,-1.94 -1111.8,-646.72 -1619.53,-937.25 -148.22,-84.81 -235.11,-112.14 -517.01,-113.54l-1059.44 -1.32 -1655.92 0zm2774.83 3953.52l16.08 -1698.29 -1319.25 -572.65 -0.85 1342.31c9.55,184.65 54.52,209.03 176.86,279.46 358.09,206.23 776.52,480.51 1127.16,649.17zm-1170.39 -2429.45c18.62,7.48 49.96,20.86 90.65,38.52l1177.94 500.37 1278.49 -545.45 -32.74 -31.02c-3.69,-2.96 -12.29,-10.89 -16.9,-14.41l-242.06 -143.33c-177.46,-105.36 -860.54,-336.3 -973.65,-334.83 -110.22,1.47 -1209.3,451.41 -1281.73,530.15zm1374.42 715.81l-5.51 1693.47c107.57,-15.04 961.16,-528.7 1131.84,-623.96 246.82,-137.77 182.22,-251.14 182.22,-700.08 0,-307.18 -1.87,-614.89 0.2,-922.02l-1308.75 552.59zm-5394.13 -847.78c199.33,0 360.91,161.58 360.91,360.91 0,199.33 -161.58,360.91 -360.91,360.91 -199.33,0 -360.91,-161.58 -360.91,-360.91 0,-199.33 161.58,-360.91 360.91,-360.91zm354.28 2795.3c199.33,0 360.91,161.58 360.91,360.91 0,199.33 -161.58,360.91 -360.91,360.91 -199.33,0 -360.91,-161.58 -360.91,-360.91 0,-199.33 161.58,-360.91 360.91,-360.91z"/>
  </g>
 </g>
</svg>
